<?xml version="1.0" encoding="UTF-8" standalone="no"?>
<!-- Generator: Adobe Illustrator 19.0.0, SVG Export Plug-In . SVG Version: 6.00 Build 0)  -->

<svg
   xmlns:dc="http://purl.org/dc/elements/1.1/"
   xmlns:cc="http://creativecommons.org/ns#"
   xmlns:rdf="http://www.w3.org/1999/02/22-rdf-syntax-ns#"
   xmlns:svg="http://www.w3.org/2000/svg"
   xmlns="http://www.w3.org/2000/svg"
   xmlns:sodipodi="http://sodipodi.sourceforge.net/DTD/sodipodi-0.dtd"
   xmlns:inkscape="http://www.inkscape.org/namespaces/inkscape"
   version="1.1"
   id="Capa_1"
   x="0px"
   y="0px"
   viewBox="0 0 512 512"
   style="enable-background:new 0 0 512 512;"
   xml:space="preserve"
   inkscape:version="0.91 r13725"
   sodipodi:docname="in.svg"><metadata
     id="metadata43"><rdf:RDF><cc:Work
         rdf:about=""><dc:format>image/svg+xml</dc:format><dc:type
           rdf:resource="http://purl.org/dc/dcmitype/StillImage" /></cc:Work></rdf:RDF></metadata><defs
     id="defs41" /><sodipodi:namedview
     pagecolor="#ffffff"
     bordercolor="#666666"
     borderopacity="1"
     objecttolerance="10"
     gridtolerance="10"
     guidetolerance="10"
     inkscape:pageopacity="0"
     inkscape:pageshadow="2"
     inkscape:window-width="1440"
     inkscape:window-height="871"
     id="namedview39"
     showgrid="false"
     inkscape:zoom="0.4609375"
     inkscape:cx="256"
     inkscape:cy="256"
     inkscape:window-x="0"
     inkscape:window-y="0"
     inkscape:window-maximized="1"
     inkscape:current-layer="Capa_1" /><g
     id="g3"
     style="fill:#800000;stroke:none;fill-opacity:0.39215687"
     inkscape:export-xdpi="2.8099999"
     inkscape:export-ydpi="2.8099999"><g
       id="g5"
       style="fill:#800000;stroke:none;fill-opacity:0.39215687"><path
         d="M446.547,138.968V97.316L349.23,0H65.453v138.475L0,186.955V512h512V186.904L446.547,138.968z M446.547,176.153    l25.176,18.438l-25.176,18.647V176.153z M358.018,51.213l37.316,37.317h-37.316V51.213z M95.453,30h232.565v88.529h88.529v116.93    L256,354.374L95.453,235.459V30z M65.453,175.807v37.431l-25.268-18.716L65.453,175.807z M30,224.312l141.687,104.945L30,462.333    V224.312z M52.881,482l143.306-134.596L256,391.707l64.23-47.574L460.365,482H52.881z M482,461.201L344.634,326.057L482,224.312    V461.201z"
         id="path7"
         style="fill:#800000;stroke:none;fill-opacity:0.39215687" /></g></g><g
     id="g9" /><g
     id="g11" /><g
     id="g13" /><g
     id="g15" /><g
     id="g17" /><g
     id="g19" /><g
     id="g21" /><g
     id="g23" /><g
     id="g25" /><g
     id="g27" /><g
     id="g29" /><g
     id="g31" /><g
     id="g33" /><g
     id="g35" /><g
     id="g37" /></svg>