<?xml version="1.0" encoding="UTF-8" standalone="no"?>
<svg
   xmlns:dc="http://purl.org/dc/elements/1.1/"
   xmlns:cc="http://creativecommons.org/ns#"
   xmlns:rdf="http://www.w3.org/1999/02/22-rdf-syntax-ns#"
   xmlns:svg="http://www.w3.org/2000/svg"
   xmlns="http://www.w3.org/2000/svg"
   xmlns:sodipodi="http://sodipodi.sourceforge.net/DTD/sodipodi-0.dtd"
   xmlns:inkscape="http://www.inkscape.org/namespaces/inkscape"
   height="512pt"
   viewBox="0 0 512 512"
   width="512pt"
   id="svg2"
   version="1.1"
   inkscape:version="0.91 r13725"
   sodipodi:docname="peers.svg">
  <metadata
     id="metadata16">
    <rdf:RDF>
      <cc:Work
         rdf:about="">
        <dc:format>image/svg+xml</dc:format>
        <dc:type
           rdf:resource="http://purl.org/dc/dcmitype/StillImage" />
      </cc:Work>
    </rdf:RDF>
  </metadata>
  <defs
     id="defs14" />
  <sodipodi:namedview
     pagecolor="#ffffff"
     bordercolor="#666666"
     borderopacity="1"
     objecttolerance="10"
     gridtolerance="10"
     guidetolerance="10"
     inkscape:pageopacity="0"
     inkscape:pageshadow="2"
     inkscape:window-width="1440"
     inkscape:window-height="871"
     id="namedview12"
     showgrid="false"
     inkscape:zoom="0.36875"
     inkscape:cx="-145.08475"
     inkscape:cy="320"
     inkscape:window-x="0"
     inkscape:window-y="0"
     inkscape:window-maximized="1"
     inkscape:current-layer="svg2" />
  <path
     d="m150 331c0-33.085938-26.914062-60-60-60s-60 26.914062-60 60 26.914062 60 60 60 60-26.914062 60-60zm-60 30c-16.542969 0-30-13.457031-30-30s13.457031-30 30-30 30 13.457031 30 30-13.457031 30-30 30zm0 0"
     id="path4"
     style="fill:#800000;fill-opacity:0.39215687"
     inkscape:export-xdpi="2.25"
     inkscape:export-ydpi="2.25" />
  <path
     d="m482 331c0-33.085938-26.914062-60-60-60s-60 26.914062-60 60 26.914062 60 60 60 60-26.914062 60-60zm-60 30c-16.542969 0-30-13.457031-30-30s13.457031-30 30-30 30 13.457031 30 30-13.457031 30-30 30zm0 0"
     id="path6"
     style="fill:#800000;fill-opacity:0.39215687"
     inkscape:export-xdpi="2.25"
     inkscape:export-ydpi="2.25" />
  <path
     d="m422 391c-16.46875 0-32.285156 4.5-46.101562 12.925781l-104.898438-66.195312v-96.730469h75v-30c0-49.914062-40.421875-91-90-91-49.550781 0-90 41.050781-90 91v30h75v96.730469l-104.898438 66.195312c-13.816406-8.425781-29.632812-12.925781-46.101562-12.925781-49.550781 0-90 41.050781-90 91v30h180v-30c0-21.097656-7.179688-41.1875-20.375-57.445312l96.375-60.816407 96.375 60.816407c-13.195312 16.257812-20.375 36.347656-20.375 57.445312v30h180v-30c0-49.914062-40.421875-91-90-91zm-166-241c33.085938 0 60 27.363281 60 61h-120c0-33.636719 26.914062-61 60-61zm-226 332c0-33.636719 26.914062-61 60-61s60 27.363281 60 61zm332 0c0-33.636719 26.914062-61 60-61s60 27.363281 60 61zm0 0"
     id="path8"
     style="fill:#800000;fill-opacity:0.39215687"
     inkscape:export-xdpi="2.25"
     inkscape:export-ydpi="2.25" />
  <path
     d="m316 60c0-33.085938-26.914062-60-60-60s-60 26.914062-60 60 26.914062 60 60 60 60-26.914062 60-60zm-60 30c-16.542969 0-30-13.457031-30-30s13.457031-30 30-30 30 13.457031 30 30-13.457031 30-30 30zm0 0"
     id="path10"
     style="fill:#800000;fill-opacity:0.39215687"
     inkscape:export-xdpi="2.25"
     inkscape:export-ydpi="2.25" />
</svg>
